<?xml version="1.0" encoding="UTF-8" standalone="no"?>
<!-- Created with Inkscape (http://www.inkscape.org/) -->

<svg
   width="184.24141mm"
   height="173.13849mm"
   viewBox="0 0 184.24141 173.13849"
   version="1.1"
   id="svg1"
   xml:space="preserve"
   xmlns:xlink="http://www.w3.org/1999/xlink"
   xmlns="http://www.w3.org/2000/svg"
   xmlns:svg="http://www.w3.org/2000/svg"><defs
     id="defs1"><linearGradient
       id="linearGradient40"><stop
         style="stop-color:#dcdcf2;stop-opacity:1;"
         offset="0"
         id="stop40" /><stop
         style="stop-color:#dcdcf2;stop-opacity:0;"
         offset="1"
         id="stop41" /></linearGradient><linearGradient
       id="linearGradient38"><stop
         style="stop-color:#90caf9;stop-opacity:1;"
         offset="0"
         id="stop38" /><stop
         style="stop-color:#39a0f7;stop-opacity:0.50588238;"
         offset="1"
         id="stop39" /></linearGradient><linearGradient
       xlink:href="#linearGradient38"
       id="linearGradient39"
       x1="15.206674"
       y1="55.539165"
       x2="222.72243"
       y2="253.93219"
       gradientUnits="userSpaceOnUse"
       gradientTransform="translate(5.7330553,2.0666636)" /><linearGradient
       xlink:href="#linearGradient40"
       id="linearGradient41"
       x1="15.002288"
       y1="138.18422"
       x2="199.2437"
       y2="138.18422"
       gradientUnits="userSpaceOnUse" /></defs><g
     id="layer3"
     style="display:inline"
     transform="translate(-15.002288,-54.100072)"><path
       style="fill:none;stroke-width:5;stroke-linecap:round;stroke-linejoin:round;stroke-dasharray:none"
       d="m 25.59747,149.51028 c 0,0 -8.615453,1.56645 -5.482561,-18.53628 3.132892,-20.10272 16.447685,-41.510814 19.058426,-45.165856 2.610745,-3.655038 22.452394,-19.841649 25.84636,-20.102724 3.393966,-0.261075 19.841652,-9.398677 32.112145,3.655042 12.2705,13.053716 12.2705,13.053716 12.2705,13.053716"
       id="path1-5" /><path
       style="fill:url(#linearGradient39);fill-opacity:1;stroke:none;stroke-width:5;stroke-linecap:round;stroke-linejoin:round;stroke-dasharray:none;stroke-opacity:1"
       d="m 35.783008,167.78338 c -4.00016,-0.51951 -6.753517,8.57177 -6.753517,8.57177 0,0 -2.129956,4.77941 1.818255,6.18207 3.94821,1.40265 7.58472,0.46755 7.58472,0.46755 l 6.801303,8.88197 c 0,0 -7.702968,-4.0542 -11.554452,4.05419 -3.851484,8.10839 -2.015793,17.16097 -0.709483,20.37232 2.432516,5.97994 6.283999,9.12194 8.615161,10.3382 1.222223,0.63768 4.459613,1.82438 23.007548,-3.34471 L 170.29694,191.34926 c 10.1419,-4.02675 22.27087,-7.8183 26.99444,-14.76938 1.85344,-3.64706 -0.99719,-10.98824 -3.90954,-13.90059 -2.48225,-2.48224 -9.79152,-8.41818 -17.93423,-6.57795 -5.60435,1.26656 -4.09571,4.15776 -4.09571,4.15776 l -5.69149,-17.9121 c 0,0 2.27127,0.89541 7.60353,-1.05541 5.33226,-1.95083 2.86121,-7.47817 2.86121,-7.47817 0,0 -2.14591,-5.39729 -6.3727,-4.81204 -4.22679,0.58525 -5.2022,5.07215 -5.2022,5.07215 l -9.30645,-22.46658 c 2.70678,-15.65546 -8.77876,-31.457221 -10.16873,-32.993505 -1.38997,-1.536282 -7.38879,-8.632444 -16.53332,-9.364007 -9.14454,-0.731562 -11.7235,4.35391 -12.36342,4.462534 -0.63992,0.108624 -2.15544,0.292627 -2.15544,0.292627 l -10.13652,-2.244591 c 0,0 -1.23865,-0.121746 -3.21684,-1.746363 -7.752918,-6.367206 -10.091038,-6.660654 -22.199239,-4.382931 -7.932277,1.492172 -15.427824,6.54228 -20.922115,10.657295 -8.894038,6.661295 -18.865821,21.254976 -20.743013,24.838711 -1.877192,3.58373 -9.51679,20.33339 -11.223329,36.88682 -1.706538,16.55342 6.143539,13.91396 6.143539,13.91396 z"
       id="path17-9" /></g><g
     id="layer2"
     style="display:inline;stroke:url(#linearGradient41);stroke-width:5;stroke-dasharray:none"
     transform="translate(-15.002288,-54.100072)"><path
       style="fill:none;fill-opacity:1;stroke:#18193f;stroke-width:5;stroke-linecap:round;stroke-linejoin:round;stroke-dasharray:none;stroke-opacity:1"
       d="m 106.80821,66.279614 c 0,0 0.89636,-0.184003 1.53628,-0.292627 0.63992,-0.108624 3.21888,-5.194096 12.36342,-4.462534 9.14453,0.731563 15.14335,7.827725 16.53332,9.364007 1.38997,1.536284 12.87551,17.338045 10.16873,32.9935"
       id="path3" /><path
       style="fill:none;fill-opacity:1;stroke:#18193f;stroke-width:5;stroke-linecap:round;stroke-linejoin:round;stroke-dasharray:none;stroke-opacity:1"
       d="m 43.19375,136.78021 c 0,0 0.260204,1.99489 -1.257649,5.89794 -1.517851,3.90305 -1.517851,4.68366 -1.517851,5.07397"
       id="path4" /><path
       style="fill:none;fill-opacity:1;stroke:#18193f;stroke-width:5;stroke-linecap:round;stroke-linejoin:round;stroke-dasharray:none;stroke-opacity:1"
       d="m 58.589113,132.66032 c 0,0 0.08674,2.5153 -0.823976,7.5459 -0.910712,5.0306 -1.734691,6.20151 -3.469379,5.63774"
       id="path5" /><path
       style="fill:none;fill-opacity:1;stroke:#18193f;stroke-width:5;stroke-linecap:round;stroke-linejoin:round;stroke-dasharray:none;stroke-opacity:1"
       d="m 71.686014,130.92563 c 0,0 -1.257649,0.99745 -2.905605,6.76529 -1.4243,4.98504 -1.647953,5.94131 -2.515299,5.89794"
       id="path6" /><path
       style="fill:none;fill-opacity:1;stroke:#18193f;stroke-width:5;stroke-linecap:round;stroke-linejoin:round;stroke-dasharray:none;stroke-opacity:1"
       d="m 41.485108,153.31007 c 0,0 2.515117,0.2648 3.594007,0.0513 1.07889,-0.2135 6.828613,-3.49132 12.527682,-5.64773 5.699067,-2.1564 11.962908,-4.46683 11.962908,-4.46683"
       id="path7" /><path
       style="fill:none;fill-opacity:1;stroke:#18193f;stroke-width:5;stroke-linecap:round;stroke-linejoin:round;stroke-dasharray:none;stroke-opacity:1"
       d="m 86.230425,138.11004 c 0,0 3.850641,-2.3308 5.748695,-5.9843 2.060811,-3.96679 1.560775,-11.5396 1.931939,-11.96859 0.371164,-0.42899 1.272252,-0.0471 1.272252,-0.0471"
       id="path8" /><path
       style="fill:none;fill-opacity:1;stroke:#18193f;stroke-width:5;stroke-linecap:round;stroke-linejoin:round;stroke-dasharray:none;stroke-opacity:1"
       d="m 94.704359,134.1538 c 0,0 0.44975,1.799 1.734746,2.6985 1.284999,0.89949 3.667015,-1.32283 5.668175,-3.59458 5.94855,-6.75289 8.19152,-12.52125 7.56456,-20.48496 -0.29708,-3.77344 -0.704,-7.01741 -0.63975,-11.83616"
       id="path9" /><path
       style="fill:none;fill-opacity:1;stroke:#18193f;stroke-width:5;stroke-linecap:round;stroke-linejoin:round;stroke-dasharray:none;stroke-opacity:1"
       d="m 119.91815,105.10793 c 0,0 -0.39626,-2.72428 0.54483,-1.38691 0.94112,1.33738 11.04574,11.14481 11.04574,11.14481"
       id="path10" /><path
       style="fill:none;fill-opacity:1;stroke:#18193f;stroke-width:5;stroke-linecap:round;stroke-linejoin:round;stroke-dasharray:none;stroke-opacity:1"
       d="m 137.70031,111.89388 c 0,0 0.49533,2.87289 -0.69345,0.74299 -1.18878,-2.1299 -3.41774,-6.78595 -3.41774,-6.78595"
       id="path11" /><path
       style="fill:none;fill-opacity:1;stroke:#18193f;stroke-width:5;stroke-linecap:round;stroke-linejoin:round;stroke-dasharray:none;stroke-opacity:1"
       d="m 103.38522,135.72949 c 0,0 17.20522,-5.76452 19.48067,-6.19358 2.27545,-0.42906 4.55255,-0.58231 7.30526,0.21174"
       id="path12" /><path
       style="fill:none;fill-opacity:1;stroke:#18193f;stroke-width:5;stroke-linecap:round;stroke-linejoin:round;stroke-dasharray:none;stroke-opacity:1"
       d="m 150.92895,119.71573 c 0,0 5.00712,12.87545 11.44485,22.88969"
       id="path13" /><path
       style="fill:none;fill-opacity:1;stroke:#18193f;stroke-width:5;stroke-linecap:round;stroke-linejoin:round;stroke-dasharray:none;stroke-opacity:1"
       d="m 156.71641,126.34854 c 0,0 0.97541,-4.4869 5.2022,-5.07215 4.22679,-0.58525 6.3727,4.81204 6.3727,4.81204 0,0 2.47105,5.52734 -2.86121,7.47817 -5.33226,1.95082 -7.60353,1.05541 -7.60353,1.05541"
       id="path14" /><path
       style="fill:none;fill-opacity:1;stroke:#18193f;stroke-width:5;stroke-linecap:round;stroke-linejoin:round;stroke-dasharray:none;stroke-opacity:1"
       d="m 34.265642,151.88866 c 0,0 -1.085324,1.42968 -1.301229,2.44473 -0.215905,1.01505 0.482508,11.14564 3.87906,20.50501"
       id="path15" /><path
       style="fill:none;fill-opacity:1;stroke:#18193f;stroke-width:5;stroke-linecap:round;stroke-linejoin:round;stroke-dasharray:none;stroke-opacity:1"
       d="m 26.806273,180.89039 c 0,0 10.909529,-7.79252 15.636994,-7.84447"
       id="path16" /><path
       style="fill:none;fill-opacity:1;stroke:#18193f;stroke-width:5;stroke-linecap:round;stroke-linejoin:round;stroke-dasharray:none;stroke-opacity:1"
       d="m 33.30004,167.85091 c 0,0 -1.350703,-7.27302 -5.350865,-7.79252 -4.00016,-0.51951 -6.753517,8.57177 -6.753517,8.57177 0,0 -2.129956,4.77941 1.818255,6.18207 3.94821,1.40265 7.58472,0.46755 7.58472,0.46755"
       id="path17" /><path
       style="fill:none;fill-opacity:1;stroke:#18193f;stroke-width:5;stroke-linecap:round;stroke-linejoin:round;stroke-dasharray:none;stroke-opacity:1"
       d="m 84.264302,162.53985 c 0,0 3.205248,-2.02437 5.65136,-2.61481 2.44611,-0.59044 9.109655,-2.19306 11.471418,-2.27741"
       id="path18" /><path
       style="fill:none;fill-opacity:1;stroke:#18193f;stroke-width:5;stroke-linecap:round;stroke-linejoin:round;stroke-dasharray:none;stroke-opacity:1"
       d="m 49.96436,182.47511 c 0,0 -7.800919,1.29487 -7.649881,-5.18946 0.186904,-8.02411 0.967795,-18.37576 5.655989,-21.71049 1.972279,-1.40289 13.798131,-0.94741 22.012045,5.26184"
       id="path19" /><path
       style="fill:none;fill-opacity:1;stroke:#18193f;stroke-width:5;stroke-linecap:round;stroke-linejoin:round;stroke-dasharray:none;stroke-opacity:1"
       d="m 59.565052,176.13956 c 4.062744,-2.42454 4.062744,-2.42454 4.062744,-2.42454"
       id="path20" /><path
       style="fill:none;fill-opacity:1;stroke:#18193f;stroke-width:5;stroke-linecap:round;stroke-linejoin:round;stroke-dasharray:none;stroke-opacity:1"
       d="m 61.305609,175.07652 c 1.089022,-1.82572 1.089022,-1.82572 1.089022,-1.82572 v 0"
       id="path21" /><path
       style="fill:none;fill-opacity:1;stroke:#18193f;stroke-width:5;stroke-linecap:round;stroke-linejoin:round;stroke-dasharray:none;stroke-opacity:1"
       d="m 71.234201,160.37244 c 0,0 8.784916,13.12963 0.381955,16.75818"
       id="path22" /><path
       style="fill:none;fill-opacity:1;stroke:#18193f;stroke-width:5;stroke-linecap:round;stroke-linejoin:round;stroke-dasharray:none;stroke-opacity:1"
       d="m 72.905246,172.83365 c 0,0 0.621812,13.29245 -6.827406,16.42398 -3.021674,1.27026 -11.792795,0.90714 -15.182625,-4.106"
       id="path23" /><path
       style="fill:none;fill-opacity:1;stroke:#18193f;stroke-width:5;stroke-linecap:round;stroke-linejoin:round;stroke-dasharray:none;stroke-opacity:1"
       d="m 126.23811,152.81439 c 0.0679,-0.0528 -0.84306,1.65088 0.79962,0.54637 0.92871,-0.62444 1.30052,-0.998 1.30165,-0.99894"
       id="path24" /><path
       style="fill:none;fill-opacity:1;stroke:#18193f;stroke-width:5;stroke-linecap:round;stroke-linejoin:round;stroke-dasharray:none;stroke-opacity:1"
       d="m 113.55675,152.91242 c 0,0 -4.87559,-4.4651 2.0369,-13.74902 10.16316,-13.64979 28.95004,-3.62669 29.68043,-0.21824 0.68778,3.20959 -1.8914,4.21928 -1.8914,4.21928"
       id="path25" /><path
       style="fill:none;fill-opacity:1;stroke:#18193f;stroke-width:5;stroke-linecap:round;stroke-linejoin:round;stroke-dasharray:none;stroke-opacity:1"
       d="m 112.4022,154.32353 c 0,0 -0.408,7.44588 3.46794,12.3418 3.87594,4.89592 10.19984,5.50792 13.56579,5.20192 3.36595,-0.30599 13.76978,-2.34596 17.03373,-13.15779"
       id="path26" /><path
       style="fill:none;fill-opacity:1;stroke:#18193f;stroke-width:5;stroke-linecap:round;stroke-linejoin:round;stroke-dasharray:none;stroke-opacity:1"
       d="m 141.67573,139.53377 c 0,0 -0.008,3.26574 5.60991,7.54788 2.71107,2.06664 -0.10199,8.77186 -1.52997,11.42381"
       id="path27" /><path
       style="fill:none;fill-opacity:1;stroke:#18193f;stroke-width:5;stroke-linecap:round;stroke-linejoin:round;stroke-dasharray:none;stroke-opacity:1"
       d="m 154.83765,138.22821 c 0,0 -4.43889,3.48244 -6.39074,4.41188 -1.36249,0.64881 -2.62767,0.97321 -2.62767,0.97321"
       id="path28" /><path
       style="fill:none;fill-opacity:1;stroke:#18193f;stroke-width:5;stroke-linecap:round;stroke-linejoin:round;stroke-dasharray:none;stroke-opacity:1"
       d="m 37.399936,184.16175 c 0,0 -7.702968,-4.0542 -11.554452,4.05419 -3.851484,8.10839 -2.015793,17.16097 -0.709483,20.37232 2.432516,5.97994 6.283999,9.12194 8.615161,10.3382 1.222223,0.63768 4.459613,1.82438 23.007548,-3.34471"
       id="path29" /><path
       style="fill:none;fill-opacity:1;stroke:#18193f;stroke-width:5;stroke-linecap:round;stroke-linejoin:round;stroke-dasharray:none;stroke-opacity:1"
       d="m 100.06689,195.51302 c 0,0 -1.515608,0.92415 -1.035051,-2.51368 0.480558,-3.43784 1.256841,-9.68509 4.140191,-11.79215 2.88335,-2.10706 8.53914,10.72013 9.72205,13.19686 1.18291,2.47672 -1.88527,-1.70044 -1.88527,-1.70044"
       id="path30" /><path
       style="fill:none;fill-opacity:1;stroke:#18193f;stroke-width:5;stroke-linecap:round;stroke-linejoin:round;stroke-dasharray:none;stroke-opacity:1"
       d="m 163.51806,152.53411 c 0,0 -1.50864,-2.8912 4.09571,-4.15776 8.14271,-1.84023 15.45198,4.09571 17.93423,6.57795 2.91235,2.91235 5.76298,10.25353 3.90954,13.90059 -4.72357,6.95108 -16.85254,10.74263 -26.99444,14.76938"
       id="path31" /><path
       style="fill:none;fill-opacity:1;stroke:#18193f;stroke-width:5;stroke-linecap:round;stroke-linejoin:round;stroke-dasharray:none;stroke-opacity:1"
       d="m 69.763359,219.76837 c 0,0 16.771005,-5.96916 20.956582,-7.03149 15.942529,-4.04632 41.514189,-11.62911 48.117419,-13.37361 7.54107,-1.99227 35.75651,-8.66753 40.20988,-10.06073 3.51524,-1.0997 12.51368,-2.76139 17.69646,-7.31117"
       id="path32" /><path
       style="display:inline;fill:none;fill-opacity:1;stroke:#18193f;stroke-width:5;stroke-linecap:round;stroke-linejoin:round;stroke-dasharray:none;stroke-opacity:1"
       d="m 23.89154,144.20251 c 0,0 -7.850077,2.63946 -6.143539,-13.91396 C 19.45454,113.73512 27.094138,96.985462 28.97133,93.401731 30.848522,89.818 40.820305,75.224319 49.714343,68.563024 55.208634,64.448009 62.704181,59.397901 70.636458,57.905729 82.744659,55.628006 85.082779,55.921454 92.8357,62.28866 c 1.978188,1.624617 3.216838,1.746363 3.216838,1.746363"
       id="path2" /></g></svg>
